<svg width="14" height="13" viewBox="0 0 14 13" fill="none" xmlns="http://www.w3.org/2000/svg">
<path d="M10.6627 5.64848L6.5726 1.44762C6.40565 1.27615 6.32552 1.07611 6.3322 0.847492C6.33888 0.618874 6.42597 0.418834 6.59347 0.24737C6.76041 0.0901943 6.95518 0.00789153 7.17777 0.000461423C7.40036 -0.00696868 7.59513 0.0753341 7.76207 0.24737L13.2712 5.90568C13.3547 5.99141 13.414 6.08429 13.449 6.18431C13.4841 6.28433 13.5011 6.39149 13.4999 6.5058C13.4988 6.62011 13.4813 6.72728 13.4474 6.8273C13.4134 6.92732 13.3544 7.0202 13.2704 7.10593L7.76124 12.7642C7.60821 12.9214 7.41678 13 7.18695 13C6.95713 13 6.75902 12.9214 6.59263 12.7642C6.42569 12.5928 6.34222 12.389 6.34222 12.153C6.34222 11.9169 6.42569 11.7134 6.59263 11.5426L10.6627 7.36312H1.33472C1.09822 7.36312 0.899835 7.28082 0.739568 7.11621C0.579302 6.95161 0.499446 6.74814 0.500003 6.5058C0.500559 6.26347 0.580693 6.05971 0.740403 5.89453C0.900113 5.72936 1.09822 5.64734 1.33472 5.64848H10.6627Z" fill="#EFEFEF"/>
</svg>
