<svg width="24" height="24" viewBox="0 0 24 24" fill="none" xmlns="http://www.w3.org/2000/svg">
<path d="M18.1335 17.4218C18.0829 10.8668 12.7815 5.56545 6.22658 5.51481L2.82541 5.48854C2.11009 5.48301 1.47392 5.20174 0.916904 4.64472C0.359885 4.0877 0.0786136 3.45153 0.0730877 2.73621C0.0675617 2.02089 0.339038 1.38899 0.887516 0.840511C1.43599 0.292033 2.06789 0.0205562 2.78321 0.0260822L20.7313 0.164733C21.5116 0.170762 22.1639 0.435901 22.6882 0.960154C23.2124 1.48441 23.4776 2.13671 23.4836 2.91706L23.6223 20.8651C23.6278 21.5804 23.3563 22.2123 22.8078 22.7608C22.2593 23.3093 21.6274 23.5808 20.9121 23.5752C20.1968 23.5697 19.5606 23.2885 19.0036 22.7314C18.4466 22.1744 18.1653 21.5382 18.1598 20.8229L18.1335 17.4218Z" fill="#EFEFEF"/>
</svg>
